<svg width="1434" height="418" viewBox="0 0 1434 418" fill="none" xmlns="http://www.w3.org/2000/svg">
<path fill-rule="evenodd" clip-rule="evenodd" d="M-9.17998 230.88C-9.17998 230.88 116.501 357.037 300.56 357.037C484.619 357.037 541.093 215.514 747.577 230.767C954.061 246.02 1062.41 324.338 1240.87 336.091C1587.98 358.95 1832.5 282.561 1832.5 282.561L1739.17 425.617L-63.5 387.712L-9.17998 230.88Z" fill="#AAE5FD"/>
<path fill-rule="evenodd" clip-rule="evenodd" d="M1821.1 213.468C1821.1 213.468 1712.38 354.024 1528.58 363.654C1344.78 373.285 1339.28 290.759 1133.89 316.769C928.498 342.779 929.8 388.029 752.201 409.084C673.659 418.395 521.963 194.945 225.456 322.715C-71.0515 450.485 -561.177 124.424 -561.177 124.424L-143.982 410.162L1820.97 425.76L1821.1 213.468Z" fill="#EEBED3"/>
<path fill-rule="evenodd" clip-rule="evenodd" d="M-10.7444 325.981C-10.7444 325.981 26.6532 409.837 188.878 409.837C351.102 409.837 394.288 289.755 576.278 304.945C758.267 320.136 853.76 398.133 1011.06 409.837C1316.99 432.602 1532.5 356.527 1532.5 356.527L1516.03 437.617L-27.5 422.056L-10.7444 325.981Z" fill="#1F1E1E"/>
</svg>
